<?xml version="1.0" encoding="UTF-8" standalone="no"?>
<!-- Created with Inkscape (http://www.inkscape.org/) -->

<svg
   version="1.1"
   id="svg2"
   xml:space="preserve"
   width="491.51999"
   height="476.06668"
   viewBox="0 0 491.51999 476.06668"
   sodipodi:docname="Basic_Elements_(161).svg"
   inkscape:version="1.1.2 (0a00cf5339, 2022-02-04)"
   xmlns:inkscape="http://www.inkscape.org/namespaces/inkscape"
   xmlns:sodipodi="http://sodipodi.sourceforge.net/DTD/sodipodi-0.dtd"
   xmlns="http://www.w3.org/2000/svg"
   xmlns:svg="http://www.w3.org/2000/svg"><defs
     id="defs6" /><sodipodi:namedview
     id="namedview4"
     pagecolor="#f1f1f1"
     bordercolor="#f1f1f1"
     borderopacity="1"
     inkscape:pageshadow="0"
     inkscape:pageopacity="0"
     inkscape:pagecheckerboard="0"
     showgrid="false"
     inkscape:zoom="1.8169724"
     inkscape:cx="245.73847"
     inkscape:cy="237.48297"
     inkscape:window-width="1920"
     inkscape:window-height="1080"
     inkscape:window-x="0"
     inkscape:window-y="0"
     inkscape:window-maximized="1"
     inkscape:current-layer="g8" /><g
     id="g8"
     inkscape:groupmode="layer"
     inkscape:label="ink_ext_XXXXXX"
     transform="matrix(1.3333333,0,0,-1.3333333,0,476.06667)"><g
       id="g10"
       transform="scale(0.1)"><path
         d="m 1843.2,2310.68 c 86.23,0 164.31,-34.97 220.82,-91.48 56.52,-56.52 91.48,-134.6 91.48,-220.83 0,-86.24 -34.96,-164.32 -91.48,-220.83 -56.51,-56.52 -134.59,-91.47 -220.82,-91.47 -86.24,0 -164.32,34.95 -220.83,91.47 -56.52,56.51 -91.48,134.59 -91.48,220.83 0,86.23 34.96,164.31 91.48,220.83 56.51,56.51 134.59,91.48 220.83,91.48"
         style="fill:#f1f1f1;fill-opacity:1;fill-rule:nonzero;stroke:none"
         id="path12" /><path
         d="M 593.949,1856.02 1804.48,3019.88 c 21.72,20.9 56.02,20.66 77.45,-0.22 l 0.02,-0.02 0.34,-0.33 1197.82,-1163.51 0.36,-0.36 39.14,-35.03 c 12.27,-10.98 18.52,-26.19 18.52,-41.46 h 0.24 V 55.8594 C 3138.37,25.0117 3113.36,0 3082.51,0 h -857.79 v 1047.7 c 0,30.85 -25.01,55.86 -55.86,55.86 h -651.32 c -30.85,0 -55.86,-25.01 -55.86,-55.86 V 0 H 603.883 c -30.848,0 -55.86,25.0117 -55.86,55.8594 V 1788.27 c 0,17.28 7.856,32.74 20.184,42.98 l 25.742,24.77"
         style="fill:#f1f1f1;fill-opacity:1;fill-rule:evenodd;stroke:none"
         id="path14" /><path
         d="M 1843.2,3305.09 188.418,1733.69 c -44.625,-42.38 -115.2735,-40.63 -157.6992,3.96 -42.4454,44.62 -40.69927,115.36 3.9648,157.78 L 1766.33,3539.83 c 43.08,40.9 110.68,40.88 153.74,0 l 1731.64,-1644.4 c 44.67,-42.42 46.42,-113.16 3.96,-157.78 -42.42,-44.59 -113.06,-46.34 -157.69,-3.96 L 1843.2,3305.09"
         style="fill:#f1f1f1;fill-opacity:1;fill-rule:evenodd;stroke:none"
         id="path16" /></g></g></svg>
